<?xml version="1.0" encoding="UTF-8" standalone="no"?><svg xmlns="http://www.w3.org/2000/svg" xmlns:xlink="http://www.w3.org/1999/xlink" contentScriptType="application/ecmascript" contentStyleType="text/css" height="305px" preserveAspectRatio="none" style="width:273px;height:305px;" version="1.1" viewBox="0 0 273 305" width="273px" zoomAndPan="magnify"><defs><filter height="300%" id="fxhe3x1mrhz63" width="300%" x="-1" y="-1"><feGaussianBlur result="blurOut" stdDeviation="2.0"/><feColorMatrix in="blurOut" result="blurOut2" type="matrix" values="0 0 0 0 0 0 0 0 0 0 0 0 0 0 0 0 0 0 .4 0"/><feOffset dx="4.0" dy="4.0" in="blurOut2" result="blurOut3"/><feBlend in="SourceGraphic" in2="blurOut3" mode="normal"/></filter></defs><g><polygon fill="#DDDDDD" filter="url(#fxhe3x1mrhz63)" points="20,8,193,8,200,31.6094,207,31.6094,207,63.2188,20,63.2188,20,8" style="stroke: #000000; stroke-width: 1.5;"/><line style="stroke: #000000; stroke-width: 1.5;" x1="20" x2="200" y1="31.6094" y2="31.6094"/><text fill="#000000" font-family="sans-serif" font-size="14" font-weight="bold" lengthAdjust="spacingAndGlyphs" textLength="167" x="24" y="24.5332">usantatecla.mastermind</text><polygon fill="#FFFFFF" filter="url(#fxhe3x1mrhz63)" points="6,123,67,123,74,146.6094,81,146.6094,81,178.2188,6,178.2188,6,123" style="stroke: #000000; stroke-width: 1.5;"/><line style="stroke: #000000; stroke-width: 1.5;" x1="6" x2="74" y1="146.6094" y2="146.6094"/><text fill="#000000" font-family="sans-serif" font-size="14" font-weight="bold" lengthAdjust="spacingAndGlyphs" textLength="55" x="10" y="139.5332">java.util</text><polygon fill="#DDDDDD" filter="url(#fxhe3x1mrhz63)" points="116,123,237,123,244,146.6094,251,146.6094,251,178.2188,116,178.2188,116,123" style="stroke: #000000; stroke-width: 1.5;"/><line style="stroke: #000000; stroke-width: 1.5;" x1="116" x2="244" y1="146.6094" y2="146.6094"/><text fill="#000000" font-family="sans-serif" font-size="14" font-weight="bold" lengthAdjust="spacingAndGlyphs" textLength="115" x="120" y="139.5332">usantatecla.utils</text><polygon fill="#FFFFFF" filter="url(#fxhe3x1mrhz63)" points="150.5,238,202.5,238,209.5,261.6094,216.5,261.6094,216.5,293.2188,150.5,293.2188,150.5,238" style="stroke: #000000; stroke-width: 1.5;"/><line style="stroke: #000000; stroke-width: 1.5;" x1="150.5" x2="209.5" y1="261.6094" y2="261.6094"/><text fill="#000000" font-family="sans-serif" font-size="14" font-weight="bold" lengthAdjust="spacingAndGlyphs" textLength="46" x="154.5" y="254.5332">java.io</text><!--link usantatecla.mastermind to java.util--><path d="M96.911,63.279 C86.6242,79.885 73.3711,101.279 62.6404,118.602 " fill="none" id="usantatecla.mastermind-java.util" style="stroke: #A80036; stroke-width: 1.0; stroke-dasharray: 7.0,7.0;"/><polygon fill="#A80036" points="59.9699,122.913,68.1097,117.3683,62.6029,118.6624,61.3088,113.1556,59.9699,122.913" style="stroke: #A80036; stroke-width: 1.0;"/><!--link usantatecla.mastermind to usantatecla.utils--><path d="M130.089,63.279 C140.376,79.885 153.629,101.279 164.36,118.602 " fill="none" id="usantatecla.mastermind-usantatecla.utils" style="stroke: #A80036; stroke-width: 1.0; stroke-dasharray: 7.0,7.0;"/><polygon fill="#A80036" points="167.03,122.913,165.6922,113.1554,164.3975,118.6621,158.8908,117.3674,167.03,122.913" style="stroke: #A80036; stroke-width: 1.0;"/><!--link usantatecla.utils to java.io--><path d="M183.5,178.279 C183.5,194.6038 183.5,215.5556 183.5,232.7176 " fill="none" id="usantatecla.utils-java.io" style="stroke: #A80036; stroke-width: 1.0; stroke-dasharray: 7.0,7.0;"/><polygon fill="#A80036" points="183.5,237.9128,187.5,228.9128,183.5,232.9128,179.5,228.9128,183.5,237.9128" style="stroke: #A80036; stroke-width: 1.0;"/><!--
@startuml

package usantatecla.mastermind #DDDDDD { }
package java.util{ }
package usantatecla.utils #DDDDDD { }
package java.io{ }

usantatecla.mastermind .down.> java.util
usantatecla.mastermind .down.> usantatecla.utils
usantatecla.utils .down.> java.io

@enduml

PlantUML version 1.2019.05(Sat Apr 20 18:45:36 CEST 2019)
(GPL source distribution)
Java Runtime: OpenJDK Runtime Environment
JVM: OpenJDK 64-Bit Server VM
Java Version: 1.8.0_222-b10
Operating System: Windows 10
OS Version: 10.0
Default Encoding: windows-1252
Language: es
Country: ES
--></g></svg>