<?xml version="1.0" encoding="UTF-8" standalone="no"?><svg xmlns="http://www.w3.org/2000/svg" xmlns:xlink="http://www.w3.org/1999/xlink" contentScriptType="application/ecmascript" contentStyleType="text/css" height="1370px" preserveAspectRatio="none" style="width:1156px;height:1370px;" version="1.1" viewBox="0 0 1156 1370" width="1156px" zoomAndPan="magnify"><defs><filter height="300%" id="fkefmuccxcxxk" width="300%" x="-1" y="-1"><feGaussianBlur result="blurOut" stdDeviation="2.0"/><feColorMatrix in="blurOut" result="blurOut2" type="matrix" values="0 0 0 0 0 0 0 0 0 0 0 0 0 0 0 0 0 0 .4 0"/><feOffset dx="4.0" dy="4.0" in="blurOut2" result="blurOut3"/><feBlend in="SourceGraphic" in2="blurOut3" mode="normal"/></filter></defs><g><!--cluster usantatecla.mastermind--><polygon fill="#FFFFFF" filter="url(#fkefmuccxcxxk)" points="91.3427,24,264.3427,24,271.3427,47.6094,894.343,47.6094,894.343,1053,91.3427,1053,91.3427,24" style="stroke: #000000; stroke-width: 1.5;"/><line style="stroke: #000000; stroke-width: 1.5;" x1="91.3427" x2="271.3427" y1="47.6094" y2="47.6094"/><text fill="#000000" font-family="sans-serif" font-size="14" font-weight="bold" lengthAdjust="spacingAndGlyphs" textLength="167" x="95.3427" y="40.5332">usantatecla.mastermind</text><!--cluster usantatecla--><polygon fill="#FFFFFF" filter="url(#fkefmuccxcxxk)" points="918.343,793.5,1005.343,793.5,1012.343,817.1094,1134.34,817.1094,1134.34,1358,918.343,1358,918.343,793.5" style="stroke: #000000; stroke-width: 1.5;"/><line style="stroke: #000000; stroke-width: 1.5;" x1="918.343" x2="1012.343" y1="817.1094" y2="817.1094"/><text fill="#000000" font-family="sans-serif" font-size="14" font-weight="bold" lengthAdjust="spacingAndGlyphs" textLength="81" x="922.343" y="810.0332">usantatecla</text><!--class Mastermind--><rect fill="#FEFECE" filter="url(#fkefmuccxcxxk)" height="103.3438" id="Mastermind" style="stroke: #A80036; stroke-width: 1.5;" width="156" x="426.343" y="60"/><ellipse cx="467.893" cy="76" fill="#ADD1B2" rx="11" ry="11" style="stroke: #A80036; stroke-width: 1.0;"/><path d="M470.6586,71.875 Q470.8149,71.6563 471.0024,71.5469 Q471.1899,71.4375 471.4086,71.4375 Q471.7836,71.4375 472.018,71.6953 Q472.2524,71.9531 472.2524,72.5625 L472.2524,74.0156 Q472.2524,74.625 472.018,74.8906 Q471.7836,75.1563 471.4086,75.1563 Q471.0649,75.1563 470.8618,74.9531 Q470.6586,74.7656 470.5493,74.25 Q470.5024,73.8906 470.3149,73.7031 Q469.9868,73.3281 469.3774,73.1094 Q468.768,72.8906 468.143,72.8906 Q467.3774,72.8906 466.7446,73.2188 Q466.1118,73.5469 465.6196,74.2969 Q465.1274,75.0469 465.1274,76.0781 L465.1274,77.1719 Q465.1274,78.4063 466.018,79.2266 Q466.9086,80.0469 468.5024,80.0469 Q469.4399,80.0469 470.0961,79.7969 Q470.4868,79.6406 470.9086,79.2031 Q471.1743,78.9375 471.3227,78.8594 Q471.4711,78.7813 471.6743,78.7813 Q472.0024,78.7813 472.2602,79.0391 Q472.518,79.2969 472.518,79.6406 Q472.518,79.9844 472.1743,80.3906 Q471.6743,80.9688 470.8774,81.2969 Q469.7993,81.75 468.5024,81.75 Q466.9868,81.75 465.7836,81.125 Q464.7993,80.625 464.1118,79.5547 Q463.4243,78.4844 463.4243,77.2031 L463.4243,76.0469 Q463.4243,74.7188 464.0414,73.5703 Q464.6586,72.4219 465.7524,71.8047 Q466.8461,71.1875 468.0805,71.1875 Q468.8149,71.1875 469.4633,71.3516 Q470.1118,71.5156 470.6586,71.875 Z "/><text fill="#000000" font-family="sans-serif" font-size="12" lengthAdjust="spacingAndGlyphs" textLength="65" x="487.793" y="80.9102">Mastermind</text><line style="stroke: #A80036; stroke-width: 1.5;" x1="427.343" x2="581.343" y1="92" y2="92"/><line style="stroke: #A80036; stroke-width: 1.5;" x1="427.343" x2="581.343" y1="100" y2="100"/><ellipse cx="437.343" cy="112.418" fill="#84BE84" rx="3" ry="3" style="stroke: #038048; stroke-width: 1.0;"/><text fill="#000000" font-family="sans-serif" font-size="11" lengthAdjust="spacingAndGlyphs" textLength="51" x="446.343" y="115.4189">void play()</text><rect fill="#F24D5C" height="6" style="stroke: #C82930; stroke-width: 1.0;" width="6" x="434.343" y="123.2539"/><text fill="#000000" font-family="sans-serif" font-size="11" lengthAdjust="spacingAndGlyphs" textLength="79" x="446.343" y="129.2549">void playGame()</text><rect fill="#F24D5C" height="6" style="stroke: #C82930; stroke-width: 1.0;" width="6" x="434.343" y="137.0898"/><text fill="#000000" font-family="sans-serif" font-size="11" lengthAdjust="spacingAndGlyphs" textLength="130" x="446.343" y="143.0908">boolean isResumedGame()</text><ellipse cx="437.343" cy="153.9258" fill="#84BE84" rx="3" ry="3" style="stroke: #038048; stroke-width: 1.0;"/><text fill="#000000" font-family="sans-serif" font-size="11" lengthAdjust="spacingAndGlyphs" text-decoration="underline" textLength="112" x="446.343" y="156.9268">void main(String[] args)</text><!--class Board--><rect fill="#FEFECE" filter="url(#fkefmuccxcxxk)" height="158.6875" id="Board" style="stroke: #A80036; stroke-width: 1.5;" width="179" x="498.843" y="241"/><ellipse cx="567.593" cy="257" fill="#ADD1B2" rx="11" ry="11" style="stroke: #A80036; stroke-width: 1.0;"/><path d="M570.3586,252.875 Q570.5149,252.6563 570.7024,252.5469 Q570.8899,252.4375 571.1086,252.4375 Q571.4836,252.4375 571.718,252.6953 Q571.9524,252.9531 571.9524,253.5625 L571.9524,255.0156 Q571.9524,255.625 571.718,255.8906 Q571.4836,256.1563 571.1086,256.1563 Q570.7649,256.1563 570.5618,255.9531 Q570.3586,255.7656 570.2493,255.25 Q570.2024,254.8906 570.0149,254.7031 Q569.6868,254.3281 569.0774,254.1094 Q568.468,253.8906 567.843,253.8906 Q567.0774,253.8906 566.4446,254.2188 Q565.8118,254.5469 565.3196,255.2969 Q564.8274,256.0469 564.8274,257.0781 L564.8274,258.1719 Q564.8274,259.4063 565.718,260.2266 Q566.6086,261.0469 568.2024,261.0469 Q569.1399,261.0469 569.7961,260.7969 Q570.1868,260.6406 570.6086,260.2031 Q570.8743,259.9375 571.0227,259.8594 Q571.1711,259.7813 571.3743,259.7813 Q571.7024,259.7813 571.9602,260.0391 Q572.218,260.2969 572.218,260.6406 Q572.218,260.9844 571.8743,261.3906 Q571.3743,261.9688 570.5774,262.2969 Q569.4993,262.75 568.2024,262.75 Q566.6868,262.75 565.4836,262.125 Q564.4993,261.625 563.8118,260.5547 Q563.1243,259.4844 563.1243,258.2031 L563.1243,257.0469 Q563.1243,255.7188 563.7414,254.5703 Q564.3586,253.4219 565.4524,252.8047 Q566.5461,252.1875 567.7805,252.1875 Q568.5149,252.1875 569.1633,252.3516 Q569.8118,252.5156 570.3586,252.875 Z "/><text fill="#000000" font-family="sans-serif" font-size="12" lengthAdjust="spacingAndGlyphs" textLength="33" x="588.093" y="261.9102">Board</text><line style="stroke: #A80036; stroke-width: 1.5;" x1="499.843" x2="676.843" y1="273" y2="273"/><rect fill="none" height="6" style="stroke: #C82930; stroke-width: 1.0;" width="6" x="506.843" y="282.418"/><text fill="#000000" font-family="sans-serif" font-size="11" lengthAdjust="spacingAndGlyphs" text-decoration="underline" textLength="148" x="518.843" y="288.4189">{final} int MAX_ATTEMPS = 10;</text><text fill="#000000" font-family="sans-serif" font-size="11" lengthAdjust="spacingAndGlyphs" textLength="58" x="518.843" y="302.2549">int attempts;</text><line style="stroke: #A80036; stroke-width: 1.5;" x1="499.843" x2="676.843" y1="308.6719" y2="308.6719"/><text fill="#000000" font-family="sans-serif" font-size="11" lengthAdjust="spacingAndGlyphs" textLength="37" x="518.843" y="324.0908">Board()</text><ellipse cx="509.843" cy="334.9258" fill="#84BE84" rx="3" ry="3" style="stroke: #038048; stroke-width: 1.0;"/><text fill="#000000" font-family="sans-serif" font-size="11" lengthAdjust="spacingAndGlyphs" textLength="64" x="518.843" y="337.9268">void writeln()</text><ellipse cx="509.843" cy="348.7617" fill="#84BE84" rx="3" ry="3" style="stroke: #038048; stroke-width: 1.0;"/><text fill="#000000" font-family="sans-serif" font-size="11" lengthAdjust="spacingAndGlyphs" textLength="153" x="518.843" y="351.7627">void add(ProposedCombination)</text><ellipse cx="509.843" cy="362.5977" fill="#84BE84" rx="3" ry="3" style="stroke: #038048; stroke-width: 1.0;"/><text fill="#000000" font-family="sans-serif" font-size="11" lengthAdjust="spacingAndGlyphs" textLength="97" x="518.843" y="365.5986">boolean isFinished()</text><ellipse cx="509.843" cy="376.4336" fill="#84BE84" rx="3" ry="3" style="stroke: #038048; stroke-width: 1.0;"/><text fill="#000000" font-family="sans-serif" font-size="11" lengthAdjust="spacingAndGlyphs" textLength="91" x="518.843" y="379.4346">boolean isWinner()</text><rect fill="#F24D5C" height="6" style="stroke: #C82930; stroke-width: 1.0;" width="6" x="506.843" y="387.2695"/><text fill="#000000" font-family="sans-serif" font-size="11" lengthAdjust="spacingAndGlyphs" textLength="91" x="518.843" y="393.2705">boolean isLooser()</text><!--class Combination--><rect fill="#FEFECE" filter="url(#fkefmuccxcxxk)" height="61.8359" id="Combination" style="stroke: #A80036; stroke-width: 1.5;" width="104" x="134.343" y="289.5"/><ellipse cx="149.343" cy="305.5" fill="#A9DCDF" rx="11" ry="11" style="stroke: #A80036; stroke-width: 1.0;"/><path d="M151.5305,307.2656 L147.3899,307.2656 L146.968,308.2969 L147.3899,308.2969 Q147.9993,308.2969 148.2649,308.5313 Q148.5305,308.7656 148.5305,309.1563 Q148.5305,309.5313 148.2649,309.7656 Q147.9993,310 147.3899,310 L145.093,310 Q144.4836,310 144.2258,309.7656 Q143.968,309.5313 143.968,309.1406 Q143.968,308.7656 144.2414,308.5234 Q144.5149,308.2813 145.1399,308.2969 L147.8118,301.6406 L146.7024,301.6406 Q146.093,301.6406 145.8274,301.4063 Q145.5618,301.1719 145.5618,300.7813 Q145.5618,300.4063 145.8274,300.1719 Q146.093,299.9375 146.7024,299.9375 L150.3743,299.9375 L153.7649,308.2969 Q154.3586,308.2969 154.5461,308.4375 Q154.9368,308.7031 154.9368,309.1563 Q154.9368,309.5313 154.6789,309.7656 Q154.4211,310 153.8118,310 L151.5149,310 Q150.9055,310 150.6399,309.7656 Q150.3743,309.5313 150.3743,309.1406 Q150.3743,308.7656 150.6399,308.5313 Q150.9055,308.2969 151.5149,308.2969 L151.9368,308.2969 L151.5305,307.2656 Z M150.8118,305.5625 L149.4524,302.1875 L148.0774,305.5625 L150.8118,305.5625 Z "/><text fill="#000000" font-family="sans-serif" font-size="12" font-style="italic" lengthAdjust="spacingAndGlyphs" textLength="72" x="163.343" y="310.4102">Combination</text><line style="stroke: #A80036; stroke-width: 1.5;" x1="135.343" x2="237.343" y1="321.5" y2="321.5"/><line style="stroke: #A80036; stroke-width: 1.5;" x1="135.343" x2="237.343" y1="329.5" y2="329.5"/><polygon fill="#4177AF" points="145.343,337.918,141.343,343.918,149.343,343.918" style="stroke: #1963A0; stroke-width: 1.0;"/><text fill="#000000" font-family="sans-serif" font-size="11" lengthAdjust="spacingAndGlyphs" textLength="69" x="154.343" y="344.9189">Combination ()</text><!--class SecretCombination--><rect fill="#FEFECE" filter="url(#fkefmuccxcxxk)" height="89.5078" id="SecretCombination" style="stroke: #A80036; stroke-width: 1.5;" width="202" x="639.343" y="561"/><ellipse cx="683.143" cy="577" fill="#ADD1B2" rx="11" ry="11" style="stroke: #A80036; stroke-width: 1.0;"/><path d="M685.9086,572.875 Q686.0649,572.6563 686.2524,572.5469 Q686.4399,572.4375 686.6586,572.4375 Q687.0336,572.4375 687.268,572.6953 Q687.5024,572.9531 687.5024,573.5625 L687.5024,575.0156 Q687.5024,575.625 687.268,575.8906 Q687.0336,576.1563 686.6586,576.1563 Q686.3149,576.1563 686.1117,575.9531 Q685.9086,575.7656 685.7992,575.25 Q685.7524,574.8906 685.5649,574.7031 Q685.2367,574.3281 684.6274,574.1094 Q684.018,573.8906 683.393,573.8906 Q682.6274,573.8906 681.9946,574.2188 Q681.3617,574.5469 680.8696,575.2969 Q680.3774,576.0469 680.3774,577.0781 L680.3774,578.1719 Q680.3774,579.4063 681.268,580.2266 Q682.1586,581.0469 683.7524,581.0469 Q684.6899,581.0469 685.3461,580.7969 Q685.7367,580.6406 686.1586,580.2031 Q686.4242,579.9375 686.5727,579.8594 Q686.7211,579.7813 686.9242,579.7813 Q687.2524,579.7813 687.5102,580.0391 Q687.768,580.2969 687.768,580.6406 Q687.768,580.9844 687.4242,581.3906 Q686.9242,581.9688 686.1274,582.2969 Q685.0492,582.75 683.7524,582.75 Q682.2367,582.75 681.0336,582.125 Q680.0492,581.625 679.3617,580.5547 Q678.6742,579.4844 678.6742,578.2031 L678.6742,577.0469 Q678.6742,575.7188 679.2914,574.5703 Q679.9086,573.4219 681.0024,572.8047 Q682.0961,572.1875 683.3305,572.1875 Q684.0649,572.1875 684.7133,572.3516 Q685.3617,572.5156 685.9086,572.875 Z "/><text fill="#000000" font-family="sans-serif" font-size="12" lengthAdjust="spacingAndGlyphs" textLength="106" x="703.543" y="581.9102">SecretCombination</text><line style="stroke: #A80036; stroke-width: 1.5;" x1="640.343" x2="840.343" y1="593" y2="593"/><line style="stroke: #A80036; stroke-width: 1.5;" x1="640.343" x2="840.343" y1="601" y2="601"/><text fill="#000000" font-family="sans-serif" font-size="11" lengthAdjust="spacingAndGlyphs" textLength="98" x="645.343" y="616.4189">SecretCombination()</text><text fill="#000000" font-family="sans-serif" font-size="11" lengthAdjust="spacingAndGlyphs" textLength="190" x="645.343" y="630.2549">Result getResult(ProposedCombination)</text><text fill="#000000" font-family="sans-serif" font-size="11" lengthAdjust="spacingAndGlyphs" textLength="64" x="645.343" y="644.0908">void writeln()</text><!--class ProposedCombination--><rect fill="#FEFECE" filter="url(#fkefmuccxcxxk)" height="117.1797" id="ProposedCombination" style="stroke: #A80036; stroke-width: 1.5;" width="158" x="252.343" y="547.5"/><ellipse cx="267.793" cy="563.5" fill="#ADD1B2" rx="11" ry="11" style="stroke: #A80036; stroke-width: 1.0;"/><path d="M270.5586,559.375 Q270.7149,559.1563 270.9024,559.0469 Q271.0899,558.9375 271.3086,558.9375 Q271.6836,558.9375 271.918,559.1953 Q272.1524,559.4531 272.1524,560.0625 L272.1524,561.5156 Q272.1524,562.125 271.918,562.3906 Q271.6836,562.6563 271.3086,562.6563 Q270.9649,562.6563 270.7618,562.4531 Q270.5586,562.2656 270.4493,561.75 Q270.4024,561.3906 270.2149,561.2031 Q269.8868,560.8281 269.2774,560.6094 Q268.668,560.3906 268.043,560.3906 Q267.2774,560.3906 266.6446,560.7188 Q266.0118,561.0469 265.5196,561.7969 Q265.0274,562.5469 265.0274,563.5781 L265.0274,564.6719 Q265.0274,565.9063 265.918,566.7266 Q266.8086,567.5469 268.4024,567.5469 Q269.3399,567.5469 269.9961,567.2969 Q270.3868,567.1406 270.8086,566.7031 Q271.0743,566.4375 271.2227,566.3594 Q271.3711,566.2813 271.5743,566.2813 Q271.9024,566.2813 272.1602,566.5391 Q272.418,566.7969 272.418,567.1406 Q272.418,567.4844 272.0743,567.8906 Q271.5743,568.4688 270.7774,568.7969 Q269.6993,569.25 268.4024,569.25 Q266.8868,569.25 265.6836,568.625 Q264.6993,568.125 264.0118,567.0547 Q263.3243,565.9844 263.3243,564.7031 L263.3243,563.5469 Q263.3243,562.2188 263.9414,561.0703 Q264.5586,559.9219 265.6524,559.3047 Q266.7461,558.6875 267.9805,558.6875 Q268.7149,558.6875 269.3633,558.8516 Q270.0118,559.0156 270.5586,559.375 Z "/><text fill="#000000" font-family="sans-serif" font-size="12" lengthAdjust="spacingAndGlyphs" textLength="125" x="281.893" y="568.4102">ProposedCombination</text><line style="stroke: #A80036; stroke-width: 1.5;" x1="253.343" x2="409.343" y1="579.5" y2="579.5"/><line style="stroke: #A80036; stroke-width: 1.5;" x1="253.343" x2="409.343" y1="587.5" y2="587.5"/><text fill="#000000" font-family="sans-serif" font-size="11" lengthAdjust="spacingAndGlyphs" textLength="56" x="272.343" y="602.9189">void write()</text><text fill="#000000" font-family="sans-serif" font-size="11" lengthAdjust="spacingAndGlyphs" textLength="53" x="272.343" y="616.7549">void read()</text><rect fill="#F24D5C" height="6" style="stroke: #C82930; stroke-width: 1.0;" width="6" x="260.343" y="624.5898"/><text fill="#000000" font-family="sans-serif" font-size="11" lengthAdjust="spacingAndGlyphs" textLength="116" x="272.343" y="630.5908">Error checkError(String)</text><text fill="#000000" font-family="sans-serif" font-size="11" lengthAdjust="spacingAndGlyphs" textLength="132" x="272.343" y="644.4268">boolean contains(Color, int)</text><text fill="#000000" font-family="sans-serif" font-size="11" lengthAdjust="spacingAndGlyphs" textLength="115" x="272.343" y="658.2627">boolean contains(Color)</text><!--class Result--><rect fill="#FEFECE" filter="url(#fkefmuccxcxxk)" height="131.0156" id="Result" style="stroke: #A80036; stroke-width: 1.5;" width="122" x="482.343" y="540.5"/><ellipse cx="521.643" cy="556.5" fill="#ADD1B2" rx="11" ry="11" style="stroke: #A80036; stroke-width: 1.0;"/><path d="M524.4086,552.375 Q524.5649,552.1563 524.7524,552.0469 Q524.9399,551.9375 525.1586,551.9375 Q525.5336,551.9375 525.768,552.1953 Q526.0024,552.4531 526.0024,553.0625 L526.0024,554.5156 Q526.0024,555.125 525.768,555.3906 Q525.5336,555.6563 525.1586,555.6563 Q524.8149,555.6563 524.6118,555.4531 Q524.4086,555.2656 524.2993,554.75 Q524.2524,554.3906 524.0649,554.2031 Q523.7368,553.8281 523.1274,553.6094 Q522.518,553.3906 521.893,553.3906 Q521.1274,553.3906 520.4946,553.7188 Q519.8618,554.0469 519.3696,554.7969 Q518.8774,555.5469 518.8774,556.5781 L518.8774,557.6719 Q518.8774,558.9063 519.768,559.7266 Q520.6586,560.5469 522.2524,560.5469 Q523.1899,560.5469 523.8461,560.2969 Q524.2368,560.1406 524.6586,559.7031 Q524.9243,559.4375 525.0727,559.3594 Q525.2211,559.2813 525.4243,559.2813 Q525.7524,559.2813 526.0102,559.5391 Q526.268,559.7969 526.268,560.1406 Q526.268,560.4844 525.9243,560.8906 Q525.4243,561.4688 524.6274,561.7969 Q523.5493,562.25 522.2524,562.25 Q520.7368,562.25 519.5336,561.625 Q518.5493,561.125 517.8618,560.0547 Q517.1743,558.9844 517.1743,557.7031 L517.1743,556.5469 Q517.1743,555.2188 517.7914,554.0703 Q518.4086,552.9219 519.5024,552.3047 Q520.5961,551.6875 521.8305,551.6875 Q522.5649,551.6875 523.2133,551.8516 Q523.8618,552.0156 524.4086,552.375 Z "/><text fill="#000000" font-family="sans-serif" font-size="12" lengthAdjust="spacingAndGlyphs" textLength="36" x="541.043" y="561.4102">Result</text><line style="stroke: #A80036; stroke-width: 1.5;" x1="483.343" x2="603.343" y1="572.5" y2="572.5"/><ellipse cx="493.343" cy="584.918" fill="none" rx="3" ry="3" style="stroke: #038048; stroke-width: 1.0;"/><text fill="#000000" font-family="sans-serif" font-size="11" lengthAdjust="spacingAndGlyphs" text-decoration="underline" textLength="96" x="502.343" y="587.9189">{fina} int WIDTH = 4;</text><rect fill="none" height="6" style="stroke: #C82930; stroke-width: 1.0;" width="6" x="490.343" y="595.7539"/><text fill="#000000" font-family="sans-serif" font-size="11" lengthAdjust="spacingAndGlyphs" textLength="45" x="502.343" y="601.7549">int blacks</text><rect fill="none" height="6" style="stroke: #C82930; stroke-width: 1.0;" width="6" x="490.343" y="609.5898"/><text fill="#000000" font-family="sans-serif" font-size="11" lengthAdjust="spacingAndGlyphs" textLength="47" x="502.343" y="615.5908">int whites</text><line style="stroke: #A80036; stroke-width: 1.5;" x1="483.343" x2="603.343" y1="622.0078" y2="622.0078"/><text fill="#000000" font-family="sans-serif" font-size="11" lengthAdjust="spacingAndGlyphs" textLength="66" x="488.343" y="637.4268">Result(int, int)</text><text fill="#000000" font-family="sans-serif" font-size="11" lengthAdjust="spacingAndGlyphs" textLength="91" x="488.343" y="651.2627">boolean isWinner()</text><text fill="#000000" font-family="sans-serif" font-size="11" lengthAdjust="spacingAndGlyphs" textLength="64" x="488.343" y="665.0986">void writeln()</text><!--class Color--><rect fill="#FEFECE" filter="url(#fkefmuccxcxxk)" height="255.5391" id="Color" style="stroke: #A80036; stroke-width: 1.5;" width="109" x="107.843" y="478"/><ellipse cx="143.993" cy="494" fill="#EB937F" rx="11" ry="11" style="stroke: #A80036; stroke-width: 1.0;"/><path d="M142.8524,494.7969 L142.8524,497.2969 L147.1805,497.2969 L147.1805,496.375 Q147.1805,495.7656 147.4227,495.5 Q147.6649,495.2344 148.0399,495.2344 Q148.4149,495.2344 148.6493,495.5 Q148.8836,495.7656 148.8836,496.375 L148.8836,499 L140.8836,499 Q140.2586,499 140.0008,498.7656 Q139.743,498.5313 139.743,498.1406 Q139.743,497.7656 140.0086,497.5313 Q140.2743,497.2969 140.8836,497.2969 L141.1493,497.2969 L141.1493,490.6406 L140.8836,490.6406 Q140.2586,490.6406 140.0008,490.4063 Q139.743,490.1719 139.743,489.7813 Q139.743,489.4063 140.0008,489.1719 Q140.2586,488.9375 140.8836,488.9375 L148.5086,488.9375 L148.5086,491.5313 Q148.5086,492.1406 148.2821,492.3984 Q148.0555,492.6563 147.6649,492.6563 Q147.2899,492.6563 147.0555,492.3984 Q146.8211,492.1406 146.8211,491.5313 L146.8211,490.6406 L142.8524,490.6406 L142.8524,493.0938 L144.3368,493.0938 Q144.3368,492.4375 144.4618,492.25 Q144.7274,491.8438 145.1961,491.8438 Q145.5711,491.8438 145.8055,492.1016 Q146.0399,492.3594 146.0399,492.9688 L146.0399,494.9375 Q146.0399,495.4844 145.9149,495.6719 Q145.6493,496.0625 145.1961,496.0625 Q144.7274,496.0625 144.4618,495.6563 Q144.3368,495.4688 144.3368,494.7969 L142.8524,494.7969 Z "/><text fill="#000000" font-family="sans-serif" font-size="12" lengthAdjust="spacingAndGlyphs" textLength="30" x="162.693" y="498.9102">Color</text><line style="stroke: #A80036; stroke-width: 1.5;" x1="108.843" x2="215.843" y1="510" y2="510"/><text fill="#000000" font-family="sans-serif" font-size="11" lengthAdjust="spacingAndGlyphs" textLength="20" x="127.843" y="525.4189">RED</text><text fill="#000000" font-family="sans-serif" font-size="11" lengthAdjust="spacingAndGlyphs" textLength="26" x="127.843" y="539.2549">BLUE</text><text fill="#000000" font-family="sans-serif" font-size="11" lengthAdjust="spacingAndGlyphs" textLength="44" x="127.843" y="553.0908">YELLOW</text><text fill="#000000" font-family="sans-serif" font-size="11" lengthAdjust="spacingAndGlyphs" textLength="34" x="127.843" y="566.9268">GREEN</text><text fill="#000000" font-family="sans-serif" font-size="11" lengthAdjust="spacingAndGlyphs" textLength="44" x="127.843" y="580.7627">ORANGE</text><text fill="#000000" font-family="sans-serif" font-size="11" lengthAdjust="spacingAndGlyphs" textLength="38" x="127.843" y="594.5986">PURPLE</text><text fill="#000000" font-family="sans-serif" font-size="11" lengthAdjust="spacingAndGlyphs" textLength="68" x="127.843" y="608.4346">NULL_COLOR</text><rect fill="none" height="6" style="stroke: #C82930; stroke-width: 1.0;" width="6" x="115.843" y="616.2695"/><text fill="#000000" font-family="sans-serif" font-size="11" lengthAdjust="spacingAndGlyphs" textLength="51" x="127.843" y="622.2705">char initial;</text><line style="stroke: #A80036; stroke-width: 1.5;" x1="108.843" x2="215.843" y1="628.6875" y2="628.6875"/><rect fill="#F24D5C" height="6" style="stroke: #C82930; stroke-width: 1.0;" width="6" x="115.843" y="638.1055"/><text fill="#000000" font-family="sans-serif" font-size="11" lengthAdjust="spacingAndGlyphs" textLength="33" x="127.843" y="644.1064">Color()</text><rect fill="#F24D5C" height="6" style="stroke: #C82930; stroke-width: 1.0;" width="6" x="115.843" y="651.9414"/><text fill="#000000" font-family="sans-serif" font-size="11" lengthAdjust="spacingAndGlyphs" textLength="55" x="127.843" y="657.9424">Color(char)</text><text fill="#000000" font-family="sans-serif" font-size="11" lengthAdjust="spacingAndGlyphs" text-decoration="underline" textLength="83" x="127.843" y="671.7783">String getInitials()</text><text fill="#000000" font-family="sans-serif" font-size="11" lengthAdjust="spacingAndGlyphs" text-decoration="underline" textLength="51" x="127.843" y="685.6143">int length()</text><text fill="#000000" font-family="sans-serif" font-size="11" lengthAdjust="spacingAndGlyphs" text-decoration="underline" textLength="62" x="127.843" y="699.4502">Color get(int)</text><text fill="#000000" font-family="sans-serif" font-size="11" lengthAdjust="spacingAndGlyphs" textLength="56" x="127.843" y="713.2861">void write()</text><text fill="#000000" font-family="sans-serif" font-size="11" lengthAdjust="spacingAndGlyphs" textLength="74" x="127.843" y="727.1221">boolean isNull()</text><!--class Error--><rect fill="#FEFECE" filter="url(#fkefmuccxcxxk)" height="172.5234" id="Error" style="stroke: #A80036; stroke-width: 1.5;" width="142" x="384.343" y="829.5"/><ellipse cx="437.593" cy="845.5" fill="#EB937F" rx="11" ry="11" style="stroke: #A80036; stroke-width: 1.0;"/><path d="M436.4524,846.2969 L436.4524,848.7969 L440.7805,848.7969 L440.7805,847.875 Q440.7805,847.2656 441.0227,847 Q441.2649,846.7344 441.6399,846.7344 Q442.0149,846.7344 442.2493,847 Q442.4836,847.2656 442.4836,847.875 L442.4836,850.5 L434.4836,850.5 Q433.8586,850.5 433.6008,850.2656 Q433.343,850.0313 433.343,849.6406 Q433.343,849.2656 433.6086,849.0313 Q433.8743,848.7969 434.4836,848.7969 L434.7493,848.7969 L434.7493,842.1406 L434.4836,842.1406 Q433.8586,842.1406 433.6008,841.9063 Q433.343,841.6719 433.343,841.2813 Q433.343,840.9063 433.6008,840.6719 Q433.8586,840.4375 434.4836,840.4375 L442.1086,840.4375 L442.1086,843.0313 Q442.1086,843.6406 441.8821,843.8984 Q441.6555,844.1563 441.2649,844.1563 Q440.8899,844.1563 440.6555,843.8984 Q440.4211,843.6406 440.4211,843.0313 L440.4211,842.1406 L436.4524,842.1406 L436.4524,844.5938 L437.9368,844.5938 Q437.9368,843.9375 438.0618,843.75 Q438.3274,843.3438 438.7961,843.3438 Q439.1711,843.3438 439.4055,843.6016 Q439.6399,843.8594 439.6399,844.4688 L439.6399,846.4375 Q439.6399,846.9844 439.5149,847.1719 Q439.2493,847.5625 438.7961,847.5625 Q438.3274,847.5625 438.0618,847.1563 Q437.9368,846.9688 437.9368,846.2969 L436.4524,846.2969 Z "/><text fill="#000000" font-family="sans-serif" font-size="12" lengthAdjust="spacingAndGlyphs" textLength="27" x="458.093" y="850.4102">Error</text><line style="stroke: #A80036; stroke-width: 1.5;" x1="385.343" x2="525.343" y1="861.5" y2="861.5"/><text fill="#000000" font-family="sans-serif" font-size="11" lengthAdjust="spacingAndGlyphs" textLength="62" x="404.343" y="876.9189">DUPLICATED</text><text fill="#000000" font-family="sans-serif" font-size="11" lengthAdjust="spacingAndGlyphs" textLength="116" x="404.343" y="890.7549">WRONG_CHARACTERS</text><text fill="#000000" font-family="sans-serif" font-size="11" lengthAdjust="spacingAndGlyphs" textLength="86" x="404.343" y="904.5908">WRONG_LENGTH</text><text fill="#000000" font-family="sans-serif" font-size="11" lengthAdjust="spacingAndGlyphs" textLength="67" x="404.343" y="918.4268">NULL_ERROR</text><rect fill="none" height="6" style="stroke: #C82930; stroke-width: 1.0;" width="6" x="392.343" y="926.2617"/><text fill="#000000" font-family="sans-serif" font-size="11" lengthAdjust="spacingAndGlyphs" textLength="78" x="404.343" y="932.2627">String message;</text><line style="stroke: #A80036; stroke-width: 1.5;" x1="385.343" x2="525.343" y1="938.6797" y2="938.6797"/><rect fill="#F24D5C" height="6" style="stroke: #C82930; stroke-width: 1.0;" width="6" x="392.343" y="948.0977"/><text fill="#000000" font-family="sans-serif" font-size="11" lengthAdjust="spacingAndGlyphs" textLength="32" x="404.343" y="954.0986">Error()</text><rect fill="#F24D5C" height="6" style="stroke: #C82930; stroke-width: 1.0;" width="6" x="392.343" y="961.9336"/><text fill="#000000" font-family="sans-serif" font-size="11" lengthAdjust="spacingAndGlyphs" textLength="60" x="404.343" y="967.9346">Error(String)</text><text fill="#000000" font-family="sans-serif" font-size="11" lengthAdjust="spacingAndGlyphs" textLength="64" x="404.343" y="981.7705">void writeln()</text><ellipse cx="395.343" cy="992.6055" fill="#84BE84" rx="3" ry="3" style="stroke: #038048; stroke-width: 1.0;"/><text fill="#000000" font-family="sans-serif" font-size="11" lengthAdjust="spacingAndGlyphs" textLength="74" x="404.343" y="995.6064">boolean isNull()</text><!--class Message--><rect fill="#FEFECE" filter="url(#fkefmuccxcxxk)" height="241.7031" id="Message" style="stroke: #A80036; stroke-width: 1.5;" width="157" x="561.843" y="795"/><ellipse cx="610.593" cy="811" fill="#EB937F" rx="11" ry="11" style="stroke: #A80036; stroke-width: 1.0;"/><path d="M609.4524,811.7969 L609.4524,814.2969 L613.7805,814.2969 L613.7805,813.375 Q613.7805,812.7656 614.0227,812.5 Q614.2649,812.2344 614.6399,812.2344 Q615.0149,812.2344 615.2493,812.5 Q615.4836,812.7656 615.4836,813.375 L615.4836,816 L607.4836,816 Q606.8586,816 606.6008,815.7656 Q606.343,815.5313 606.343,815.1406 Q606.343,814.7656 606.6086,814.5313 Q606.8743,814.2969 607.4836,814.2969 L607.7493,814.2969 L607.7493,807.6406 L607.4836,807.6406 Q606.8586,807.6406 606.6008,807.4063 Q606.343,807.1719 606.343,806.7813 Q606.343,806.4063 606.6008,806.1719 Q606.8586,805.9375 607.4836,805.9375 L615.1086,805.9375 L615.1086,808.5313 Q615.1086,809.1406 614.8821,809.3984 Q614.6555,809.6563 614.2649,809.6563 Q613.8899,809.6563 613.6555,809.3984 Q613.4211,809.1406 613.4211,808.5313 L613.4211,807.6406 L609.4524,807.6406 L609.4524,810.0938 L610.9368,810.0938 Q610.9368,809.4375 611.0618,809.25 Q611.3274,808.8438 611.7961,808.8438 Q612.1711,808.8438 612.4055,809.1016 Q612.6399,809.3594 612.6399,809.9688 L612.6399,811.9375 Q612.6399,812.4844 612.5149,812.6719 Q612.2493,813.0625 611.7961,813.0625 Q611.3274,813.0625 611.0618,812.6563 Q610.9368,812.4688 610.9368,811.7969 L609.4524,811.7969 Z "/><text fill="#000000" font-family="sans-serif" font-size="12" lengthAdjust="spacingAndGlyphs" textLength="51" x="631.093" y="815.9102">Message</text><line style="stroke: #A80036; stroke-width: 1.5;" x1="562.843" x2="717.843" y1="827" y2="827"/><text fill="#000000" font-family="sans-serif" font-size="11" lengthAdjust="spacingAndGlyphs" textLength="53" x="581.843" y="842.4189">ATTEMPTS</text><text fill="#000000" font-family="sans-serif" font-size="11" lengthAdjust="spacingAndGlyphs" textLength="39" x="581.843" y="856.2549">SECRET</text><text fill="#000000" font-family="sans-serif" font-size="11" lengthAdjust="spacingAndGlyphs" textLength="41" x="581.843" y="870.0908">RESUME</text><text fill="#000000" font-family="sans-serif" font-size="11" lengthAdjust="spacingAndGlyphs" textLength="39" x="581.843" y="883.9268">RESULT</text><text fill="#000000" font-family="sans-serif" font-size="11" lengthAdjust="spacingAndGlyphs" textLength="131" x="581.843" y="897.7627">PROPOSED_COMBINATION</text><text fill="#000000" font-family="sans-serif" font-size="11" lengthAdjust="spacingAndGlyphs" textLength="26" x="581.843" y="911.5986">TITLE</text><text fill="#000000" font-family="sans-serif" font-size="11" lengthAdjust="spacingAndGlyphs" textLength="39" x="581.843" y="925.4346">WINNER</text><text fill="#000000" font-family="sans-serif" font-size="11" lengthAdjust="spacingAndGlyphs" textLength="42" x="581.843" y="939.2705">LOOSER</text><rect fill="none" height="6" style="stroke: #C82930; stroke-width: 1.0;" width="6" x="569.843" y="947.1055"/><text fill="#000000" font-family="sans-serif" font-size="11" lengthAdjust="spacingAndGlyphs" textLength="78" x="581.843" y="953.1064">String message;</text><line style="stroke: #A80036; stroke-width: 1.5;" x1="562.843" x2="717.843" y1="959.5234" y2="959.5234"/><rect fill="#F24D5C" height="6" style="stroke: #C82930; stroke-width: 1.0;" width="6" x="569.843" y="968.9414"/><text fill="#000000" font-family="sans-serif" font-size="11" lengthAdjust="spacingAndGlyphs" textLength="80" x="581.843" y="974.9424">Message(String)</text><text fill="#000000" font-family="sans-serif" font-size="11" lengthAdjust="spacingAndGlyphs" textLength="56" x="581.843" y="988.7783">void write()</text><text fill="#000000" font-family="sans-serif" font-size="11" lengthAdjust="spacingAndGlyphs" textLength="64" x="581.843" y="1002.6143">void writeln()</text><text fill="#000000" font-family="sans-serif" font-size="11" lengthAdjust="spacingAndGlyphs" textLength="75" x="581.843" y="1016.4502">void writeln(int)</text><text fill="#000000" font-family="sans-serif" font-size="11" lengthAdjust="spacingAndGlyphs" textLength="92" x="581.843" y="1030.2861">void writeln(int, int)</text><!--class Console--><rect fill="#FEFECE" filter="url(#fkefmuccxcxxk)" height="241.7031" id="Console" style="stroke: #A80036; stroke-width: 1.5;" width="184" x="934.343" y="1100"/><ellipse cx="998.593" cy="1116" fill="#ADD1B2" rx="11" ry="11" style="stroke: #A80036; stroke-width: 1.0;"/><path d="M1001.3586,1111.875 Q1001.5149,1111.6563 1001.7024,1111.5469 Q1001.8899,1111.4375 1002.1086,1111.4375 Q1002.4836,1111.4375 1002.718,1111.6953 Q1002.9524,1111.9531 1002.9524,1112.5625 L1002.9524,1114.0156 Q1002.9524,1114.625 1002.718,1114.8906 Q1002.4836,1115.1563 1002.1086,1115.1563 Q1001.7649,1115.1563 1001.5618,1114.9531 Q1001.3586,1114.7656 1001.2493,1114.25 Q1001.2024,1113.8906 1001.0149,1113.7031 Q1000.6868,1113.3281 1000.0774,1113.1094 Q999.468,1112.8906 998.843,1112.8906 Q998.0774,1112.8906 997.4446,1113.2188 Q996.8118,1113.5469 996.3196,1114.2969 Q995.8274,1115.0469 995.8274,1116.0781 L995.8274,1117.1719 Q995.8274,1118.4063 996.718,1119.2266 Q997.6086,1120.0469 999.2024,1120.0469 Q1000.1399,1120.0469 1000.7961,1119.7969 Q1001.1868,1119.6406 1001.6086,1119.2031 Q1001.8743,1118.9375 1002.0227,1118.8594 Q1002.1711,1118.7813 1002.3743,1118.7813 Q1002.7024,1118.7813 1002.9602,1119.0391 Q1003.218,1119.2969 1003.218,1119.6406 Q1003.218,1119.9844 1002.8743,1120.3906 Q1002.3743,1120.9688 1001.5774,1121.2969 Q1000.4993,1121.75 999.2024,1121.75 Q997.6868,1121.75 996.4836,1121.125 Q995.4993,1120.625 994.8118,1119.5547 Q994.1243,1118.4844 994.1243,1117.2031 L994.1243,1116.0469 Q994.1243,1114.7188 994.7414,1113.5703 Q995.3586,1112.4219 996.4524,1111.8047 Q997.5461,1111.1875 998.7805,1111.1875 Q999.5149,1111.1875 1000.1633,1111.3516 Q1000.8118,1111.5156 1001.3586,1111.875 Z "/><text fill="#000000" font-family="sans-serif" font-size="12" lengthAdjust="spacingAndGlyphs" textLength="47" x="1019.093" y="1120.9102">Console</text><line style="stroke: #A80036; stroke-width: 1.5;" x1="935.343" x2="1117.343" y1="1132" y2="1132"/><ellipse cx="945.343" cy="1144.418" fill="none" rx="3" ry="3" style="stroke: #038048; stroke-width: 1.0;"/><text fill="#000000" font-family="sans-serif" font-size="11" lengthAdjust="spacingAndGlyphs" text-decoration="underline" textLength="83" x="954.343" y="1147.4189">Console console;</text><rect fill="none" height="6" style="stroke: #C82930; stroke-width: 1.0;" width="6" x="942.343" y="1155.2539"/><text fill="#000000" font-family="sans-serif" font-size="11" lengthAdjust="spacingAndGlyphs" textLength="158" x="954.343" y="1161.2549">BufferedReader bufferedReader</text><line style="stroke: #A80036; stroke-width: 1.5;" x1="935.343" x2="1117.343" y1="1167.6719" y2="1167.6719"/><ellipse cx="945.343" cy="1180.0898" fill="#84BE84" rx="3" ry="3" style="stroke: #038048; stroke-width: 1.0;"/><text fill="#000000" font-family="sans-serif" font-size="11" lengthAdjust="spacingAndGlyphs" text-decoration="underline" textLength="91" x="954.343" y="1183.0908">Console instance()</text><ellipse cx="945.343" cy="1193.9258" fill="#84BE84" rx="3" ry="3" style="stroke: #038048; stroke-width: 1.0;"/><text fill="#000000" font-family="sans-serif" font-size="11" lengthAdjust="spacingAndGlyphs" textLength="117" x="954.343" y="1196.9268">String readString(String)</text><ellipse cx="945.343" cy="1207.7617" fill="#84BE84" rx="3" ry="3" style="stroke: #038048; stroke-width: 1.0;"/><text fill="#000000" font-family="sans-serif" font-size="11" lengthAdjust="spacingAndGlyphs" textLength="89" x="954.343" y="1210.7627">String readString()</text><ellipse cx="945.343" cy="1221.5977" fill="#84BE84" rx="3" ry="3" style="stroke: #038048; stroke-width: 1.0;"/><text fill="#000000" font-family="sans-serif" font-size="11" lengthAdjust="spacingAndGlyphs" textLength="83" x="954.343" y="1224.5986">int readInt(String)</text><ellipse cx="945.343" cy="1235.4336" fill="#84BE84" rx="3" ry="3" style="stroke: #038048; stroke-width: 1.0;"/><text fill="#000000" font-family="sans-serif" font-size="11" lengthAdjust="spacingAndGlyphs" textLength="106" x="954.343" y="1238.4346">char readChar(String)</text><ellipse cx="945.343" cy="1249.2695" fill="#84BE84" rx="3" ry="3" style="stroke: #038048; stroke-width: 1.0;"/><text fill="#000000" font-family="sans-serif" font-size="11" lengthAdjust="spacingAndGlyphs" textLength="64" x="954.343" y="1252.2705">void writeln()</text><ellipse cx="945.343" cy="1263.1055" fill="#84BE84" rx="3" ry="3" style="stroke: #038048; stroke-width: 1.0;"/><text fill="#000000" font-family="sans-serif" font-size="11" lengthAdjust="spacingAndGlyphs" textLength="84" x="954.343" y="1266.1064">void write(String)</text><ellipse cx="945.343" cy="1276.9414" fill="#84BE84" rx="3" ry="3" style="stroke: #038048; stroke-width: 1.0;"/><text fill="#000000" font-family="sans-serif" font-size="11" lengthAdjust="spacingAndGlyphs" textLength="67" x="954.343" y="1279.9424">void write(int)</text><ellipse cx="945.343" cy="1290.7773" fill="#84BE84" rx="3" ry="3" style="stroke: #038048; stroke-width: 1.0;"/><text fill="#000000" font-family="sans-serif" font-size="11" lengthAdjust="spacingAndGlyphs" textLength="92" x="954.343" y="1293.7783">void writeln(String)</text><ellipse cx="945.343" cy="1304.6133" fill="#84BE84" rx="3" ry="3" style="stroke: #038048; stroke-width: 1.0;"/><text fill="#000000" font-family="sans-serif" font-size="11" lengthAdjust="spacingAndGlyphs" textLength="75" x="954.343" y="1307.6143">void writeln(int)</text><ellipse cx="945.343" cy="1318.4492" fill="#84BE84" rx="3" ry="3" style="stroke: #038048; stroke-width: 1.0;"/><text fill="#000000" font-family="sans-serif" font-size="11" lengthAdjust="spacingAndGlyphs" textLength="78" x="954.343" y="1321.4502">void write(char)</text><ellipse cx="945.343" cy="1332.2852" fill="#84BE84" rx="3" ry="3" style="stroke: #038048; stroke-width: 1.0;"/><text fill="#000000" font-family="sans-serif" font-size="11" lengthAdjust="spacingAndGlyphs" textLength="108" x="954.343" y="1335.2861">void writeError(String)</text><!--class YesNoDialog--><rect fill="#FEFECE" filter="url(#fkefmuccxcxxk)" height="172.5234" id="YesNoDialog" style="stroke: #A80036; stroke-width: 1.5;" width="141" x="954.843" y="829.5"/><ellipse cx="986.043" cy="845.5" fill="#ADD1B2" rx="11" ry="11" style="stroke: #A80036; stroke-width: 1.0;"/><path d="M988.8086,841.375 Q988.9649,841.1563 989.1524,841.0469 Q989.3399,840.9375 989.5586,840.9375 Q989.9336,840.9375 990.168,841.1953 Q990.4024,841.4531 990.4024,842.0625 L990.4024,843.5156 Q990.4024,844.125 990.168,844.3906 Q989.9336,844.6563 989.5586,844.6563 Q989.2149,844.6563 989.0118,844.4531 Q988.8086,844.2656 988.6993,843.75 Q988.6524,843.3906 988.4649,843.2031 Q988.1368,842.8281 987.5274,842.6094 Q986.918,842.3906 986.293,842.3906 Q985.5274,842.3906 984.8946,842.7188 Q984.2618,843.0469 983.7696,843.7969 Q983.2774,844.5469 983.2774,845.5781 L983.2774,846.6719 Q983.2774,847.9063 984.168,848.7266 Q985.0586,849.5469 986.6524,849.5469 Q987.5899,849.5469 988.2461,849.2969 Q988.6368,849.1406 989.0586,848.7031 Q989.3243,848.4375 989.4727,848.3594 Q989.6211,848.2813 989.8243,848.2813 Q990.1524,848.2813 990.4102,848.5391 Q990.668,848.7969 990.668,849.1406 Q990.668,849.4844 990.3243,849.8906 Q989.8243,850.4688 989.0274,850.7969 Q987.9493,851.25 986.6524,851.25 Q985.1368,851.25 983.9336,850.625 Q982.9493,850.125 982.2618,849.0547 Q981.5743,847.9844 981.5743,846.7031 L981.5743,845.5469 Q981.5743,844.2188 982.1914,843.0703 Q982.8086,841.9219 983.9024,841.3047 Q984.9961,840.6875 986.2305,840.6875 Q986.9649,840.6875 987.6133,840.8516 Q988.2618,841.0156 988.8086,841.375 Z "/><text fill="#000000" font-family="sans-serif" font-size="12" lengthAdjust="spacingAndGlyphs" textLength="73" x="1003.643" y="850.4102">YesNoDialog</text><line style="stroke: #A80036; stroke-width: 1.5;" x1="955.843" x2="1094.843" y1="861.5" y2="861.5"/><rect fill="none" height="6" style="stroke: #C82930; stroke-width: 1.0;" width="6" x="962.843" y="870.918"/><text fill="#000000" font-family="sans-serif" font-size="11" lengthAdjust="spacingAndGlyphs" text-decoration="underline" textLength="115" x="974.843" y="876.9189">final char AFFIRMATIVE</text><rect fill="none" height="6" style="stroke: #C82930; stroke-width: 1.0;" width="6" x="962.843" y="884.7539"/><text fill="#000000" font-family="sans-serif" font-size="11" lengthAdjust="spacingAndGlyphs" text-decoration="underline" textLength="99" x="974.843" y="890.7549">final char NEGATIVE</text><rect fill="none" height="6" style="stroke: #C82930; stroke-width: 1.0;" width="6" x="962.843" y="898.5898"/><text fill="#000000" font-family="sans-serif" font-size="11" lengthAdjust="spacingAndGlyphs" text-decoration="underline" textLength="89" x="974.843" y="904.5908">final String SUFFIX</text><rect fill="none" height="6" style="stroke: #C82930; stroke-width: 1.0;" width="6" x="962.843" y="912.4258"/><text fill="#000000" font-family="sans-serif" font-size="11" lengthAdjust="spacingAndGlyphs" text-decoration="underline" textLength="104" x="974.843" y="918.4268">final String MESSAGE</text><rect fill="none" height="6" style="stroke: #C82930; stroke-width: 1.0;" width="6" x="962.843" y="926.2617"/><text fill="#000000" font-family="sans-serif" font-size="11" lengthAdjust="spacingAndGlyphs" textLength="66" x="974.843" y="932.2627">char answer;</text><line style="stroke: #A80036; stroke-width: 1.5;" x1="955.843" x2="1094.843" y1="938.6797" y2="938.6797"/><ellipse cx="965.843" cy="951.0977" fill="#84BE84" rx="3" ry="3" style="stroke: #038048; stroke-width: 1.0;"/><text fill="#000000" font-family="sans-serif" font-size="11" lengthAdjust="spacingAndGlyphs" textLength="99" x="974.843" y="954.0986">boolean read(String)</text><rect fill="#F24D5C" height="6" style="stroke: #C82930; stroke-width: 1.0;" width="6" x="962.843" y="961.9336"/><text fill="#000000" font-family="sans-serif" font-size="11" lengthAdjust="spacingAndGlyphs" textLength="106" x="974.843" y="967.9346">boolean isAfirmative()</text><rect fill="#F24D5C" height="6" style="stroke: #C82930; stroke-width: 1.0;" width="6" x="962.843" y="975.7695"/><text fill="#000000" font-family="sans-serif" font-size="11" lengthAdjust="spacingAndGlyphs" textLength="88" x="974.843" y="981.7705">char getAnswer()</text><rect fill="#F24D5C" height="6" style="stroke: #C82930; stroke-width: 1.0;" width="6" x="962.843" y="989.6055"/><text fill="#000000" font-family="sans-serif" font-size="11" lengthAdjust="spacingAndGlyphs" textLength="99" x="974.843" y="995.6064">boolean isNegative()</text><!--link Mastermind to Board--><path d="M529.819,175.28 C536.651,192.12 544.177,210.66 551.492,228.69 " fill="none" id="Mastermind-Board" style="stroke: #A80036; stroke-width: 1.0;"/><polygon fill="#A80036" points="556.384,240.75,556.708,230.9065,554.5047,236.1166,549.2946,233.9133,556.384,240.75" style="stroke: #A80036; stroke-width: 1.0;"/><line style="stroke: #A80036; stroke-width: 1.0;" x1="554.5047" x2="551.496" y1="236.1166" y2="228.7"/><polygon fill="#A80036" points="524.891,163.14,523.4394,170.2035,529.4013,174.2601,530.8529,167.1966,524.891,163.14" style="stroke: #A80036; stroke-width: 1.0;"/><text fill="#000000" font-family="sans-serif" font-size="13" lengthAdjust="spacingAndGlyphs" textLength="32" x="545.343" y="207.4951">board</text><!--link Mastermind to ProposedCombination--><path d="M469.226,163.28 C463.435,172.89 457.858,183.06 453.343,193 C399.615,311.3 362.522,459.344 344.3,541.893 " fill="none" id="Mastermind-ProposedCombination" style="stroke: #A80036; stroke-width: 1.0; stroke-dasharray: 7.0,7.0;"/><polygon fill="#A80036" points="343.127,547.235,348.9652,539.3031,344.2,542.3515,341.1516,537.5863,343.127,547.235" style="stroke: #A80036; stroke-width: 1.0;"/><!--link Board to SecretCombination--><path d="M636.78,411.842 C660.925,456.875 689.363,509.916 710.324,549.011 " fill="none" id="Board-SecretCombination" style="stroke: #A80036; stroke-width: 1.0;"/><polygon fill="#A80036" points="716.576,560.671,715.8485,550.849,714.2134,556.2644,708.798,554.6293,716.576,560.671" style="stroke: #A80036; stroke-width: 1.0;"/><line style="stroke: #A80036; stroke-width: 1.0;" x1="714.2134" x2="710.433" y1="556.2644" y2="549.214"/><polygon fill="#A80036" points="630.481,400.094,629.7909,407.272,636.1513,410.6698,636.8414,403.4918,630.481,400.094" style="stroke: #A80036; stroke-width: 1.0;"/><text fill="#000000" font-family="sans-serif" font-size="13" lengthAdjust="spacingAndGlyphs" textLength="108" x="656.343" y="444.4951">secretCombination</text><!--link Board to ProposedCombination--><path d="M487.573,378.595 C466.132,393.573 444.74,410.938 427.343,430 C399.237,460.795 376.345,501.298 359.974,535.582 " fill="none" id="Board-ProposedCombination" style="stroke: #A80036; stroke-width: 1.0;"/><polygon fill="#A80036" points="354.457,547.423,361.8835,540.9541,356.5685,542.8907,354.6318,537.5757,354.457,547.423" style="stroke: #A80036; stroke-width: 1.0;"/><line style="stroke: #A80036; stroke-width: 1.0;" x1="356.5685" x2="359.9475" y1="542.8907" y2="535.6395"/><polygon fill="#FFFFFF" points="498.426,371.21,491.2152,371.2779,488.5045,377.9601,495.7153,377.8922,498.426,371.21" style="stroke: #A80036; stroke-width: 1.0;"/><text fill="#000000" font-family="sans-serif" font-size="13" lengthAdjust="spacingAndGlyphs" textLength="132" x="428.343" y="444.4951">proposedCombinations</text><text fill="#000000" font-family="sans-serif" font-size="13" lengthAdjust="spacingAndGlyphs" textLength="29" x="326.5068" y="536.8145">0..10</text><!--link Board to Result--><path d="M573.817,413.011 C567.984,449.761 561.329,491.686 555.73,526.962 " fill="none" id="Board-Result" style="stroke: #A80036; stroke-width: 1.0;"/><polygon fill="#A80036" points="553.639,540.132,559,531.8701,554.4226,535.1938,551.0988,530.6164,553.639,540.132" style="stroke: #A80036; stroke-width: 1.0;"/><line style="stroke: #A80036; stroke-width: 1.0;" x1="554.4226" x2="555.6775" y1="535.1938" y2="527.293"/><polygon fill="#FFFFFF" points="575.867,400.094,570.9756,405.3925,573.9852,411.9455,578.8766,406.647,575.867,400.094" style="stroke: #A80036; stroke-width: 1.0;"/><text fill="#000000" font-family="sans-serif" font-size="13" lengthAdjust="spacingAndGlyphs" textLength="39" x="571.343" y="444.4951">results</text><text fill="#000000" font-family="sans-serif" font-size="13" lengthAdjust="spacingAndGlyphs" textLength="29" x="524.1792" y="529.5662">0..10</text><!--link Combination to Color--><path d="M182.694,364.6 C180.41,391.579 177.326,428.012 174.25,464.349 " fill="none" id="Combination-Color" style="stroke: #A80036; stroke-width: 1.0;"/><polygon fill="#A80036" points="173.118,477.715,177.8633,469.0847,173.54,472.7328,169.8918,468.4095,173.118,477.715" style="stroke: #A80036; stroke-width: 1.0;"/><line style="stroke: #A80036; stroke-width: 1.0;" x1="173.54" x2="174.215" y1="472.7328" y2="464.761"/><polygon fill="#A80036" points="183.797,351.57,179.3036,357.21,182.7816,363.527,187.2749,357.887,183.797,351.57" style="stroke: #A80036; stroke-width: 1.0;"/><text fill="#000000" font-family="sans-serif" font-size="13" lengthAdjust="spacingAndGlyphs" textLength="35" x="178.343" y="444.4951">colors</text><text fill="#000000" font-family="sans-serif" font-size="13" lengthAdjust="spacingAndGlyphs" textLength="7" x="166.5386" y="467.3546">4</text><!--link Combination to SecretCombination--><path d="M257.755,345.15 C372.932,383.586 590.034,457.415 621.343,478 C655.047,500.161 685.961,533.746 707.828,560.813 " fill="none" id="Combination-SecretCombination" style="stroke: #A80036; stroke-width: 1.0;"/><polygon fill="none" points="255.272,351.7,238.509,338.73,259.696,338.41,255.272,351.7" style="stroke: #A80036; stroke-width: 1.0;"/><!--link Combination to ProposedCombination--><path d="M210.934,369.58 C236.061,418.708 275.089,495.015 301.86,547.356 " fill="none" id="Combination-ProposedCombination" style="stroke: #A80036; stroke-width: 1.0;"/><polygon fill="none" points="204.598,372.56,201.723,351.57,217.062,366.19,204.598,372.56" style="stroke: #A80036; stroke-width: 1.0;"/><!--link ProposedCombination to Error--><path d="M353.107,664.572 C364.572,694.59 378.991,731.863 392.343,765 C400.079,784.201 408.55,804.701 416.7,824.184 " fill="none" id="ProposedCombination-Error" style="stroke: #A80036; stroke-width: 1.0; stroke-dasharray: 7.0,7.0;"/><polygon fill="#A80036" points="418.764,829.114,418.9777,819.2675,416.8329,824.502,411.5984,822.3572,418.764,829.114" style="stroke: #A80036; stroke-width: 1.0;"/><!--link Mastermind to Message--><path d="M493.98,163.28 C489.502,186.83 484.562,215.25 481.343,241 C474.544,295.39 438.232,685.809 464.343,734 C484.31,770.851 512.756,756.844 543.343,785.5 C548.325,790.168 553.236,795.116 558.043,800.251 " fill="none" id="Mastermind-Message" style="stroke: #A80036; stroke-width: 1.0; stroke-dasharray: 7.0,7.0;"/><polygon fill="#A80036" points="561.699,804.211,558.534,794.8845,558.3077,800.5369,552.6554,800.3106,561.699,804.211" style="stroke: #A80036; stroke-width: 1.0;"/><!--link Board to Message--><path d="M678.101,347.18 C740.782,370.33 819.864,411.222 858.343,478 C915.147,576.583 906.695,631.008 858.343,734 C830.491,793.325 772.585,839.924 723.45,870.976 " fill="none" id="Board-Message" style="stroke: #A80036; stroke-width: 1.0; stroke-dasharray: 7.0,7.0;"/><polygon fill="#A80036" points="719.026,873.744,728.7771,872.3598,723.2643,871.0913,724.5328,865.5785,719.026,873.744" style="stroke: #A80036; stroke-width: 1.0;"/><!--link ProposedCombination to Message--><path d="M355.881,664.561 C373.547,699.026 400.727,740.724 437.343,765 C477.335,791.515 502.675,760.033 543.343,785.5 C548.365,788.645 553.217,792.151 557.895,795.936 " fill="none" id="ProposedCombination-Message" style="stroke: #A80036; stroke-width: 1.0; stroke-dasharray: 7.0,7.0;"/><polygon fill="#A80036" points="561.783,799.181,557.4352,790.3437,557.9439,795.9777,552.3099,796.4863,561.783,799.181" style="stroke: #A80036; stroke-width: 1.0;"/><!--link Result to Message--><path d="M563.677,671.567 C574.487,705.892 588.154,749.289 600.945,789.903 " fill="none" id="Result-Message" style="stroke: #A80036; stroke-width: 1.0; stroke-dasharray: 7.0,7.0;"/><polygon fill="#A80036" points="602.501,794.842,603.6143,785.0563,600.9998,790.0727,595.9834,787.4582,602.501,794.842" style="stroke: #A80036; stroke-width: 1.0;"/><!--link YesNoDialog to Console--><path d="M1025.63,1002.613 C1025.72,1031.149 1025.83,1063.56 1025.93,1094.481 " fill="none" id="YesNoDialog-Console" style="stroke: #A80036; stroke-width: 1.0; stroke-dasharray: 7.0,7.0;"/><polygon fill="#A80036" points="1025.95,1099.832,1029.9191,1090.8183,1025.9329,1094.832,1021.9192,1090.8458,1025.95,1099.832" style="stroke: #A80036; stroke-width: 1.0;"/><!--link Board to Console--><path d="M498.398,341.42 C393.619,365.2 227.334,404.904 168.343,430 C130.886,445.935 110.199,442.466 90.3427,478 C-37.0126,705.911 -25.4466,879.623 162.343,1061 C270.796,1165.75 727.112,1203.54 929.257,1215.317 " fill="none" id="Board-Console" style="stroke: #A80036; stroke-width: 1.0; stroke-dasharray: 7.0,7.0;"/><polygon fill="#A80036" points="934.279,1215.607,925.5249,1211.0942,929.2873,1215.3184,925.0631,1219.0809,934.279,1215.607" style="stroke: #A80036; stroke-width: 1.0;"/><!--link Color to Console--><path d="M163.759,734.054 C171.954,836.618 200.329,977.196 289.343,1061 C380.944,1147.239 750.532,1193.616 928.98,1211.37 " fill="none" id="Color-Console" style="stroke: #A80036; stroke-width: 1.0; stroke-dasharray: 7.0,7.0;"/><polygon fill="#A80036" points="934.204,1211.887,925.6407,1207.0218,929.2282,1211.3956,924.8544,1214.983,934.204,1211.887" style="stroke: #A80036; stroke-width: 1.0;"/><!--link Error to Console--><path d="M494.938,1002.831 C508.136,1024.207 524.614,1045.437 544.343,1061 C657.957,1150.627 824.163,1190.695 928.728,1207.904 " fill="none" id="Error-Console" style="stroke: #A80036; stroke-width: 1.0; stroke-dasharray: 7.0,7.0;"/><polygon fill="#A80036" points="933.97,1208.757,925.729,1203.3639,929.0349,1207.9542,924.4445,1211.2601,933.97,1208.757" style="stroke: #A80036; stroke-width: 1.0;"/><!--link Message to Console--><path d="M718.921,978.682 C779.963,1026.598 864.904,1093.275 930.036,1144.402 " fill="none" id="Message-Console" style="stroke: #A80036; stroke-width: 1.0; stroke-dasharray: 7.0,7.0;"/><polygon fill="#A80036" points="934.297,1147.747,929.6893,1139.0424,930.3647,1144.6588,924.7483,1145.3342,934.297,1147.747" style="stroke: #A80036; stroke-width: 1.0;"/><!--link ProposedCombination to Console--><path d="M316.456,664.783 C295.783,759.62 270.854,948.926 366.343,1061 C438.51,1145.701 763.288,1191.955 928.765,1210.398 " fill="none" id="ProposedCombination-Console" style="stroke: #A80036; stroke-width: 1.0; stroke-dasharray: 7.0,7.0;"/><polygon fill="#A80036" points="934.099,1210.989,925.5937,1206.0231,929.1294,1210.4389,924.7135,1213.9745,934.099,1210.989" style="stroke: #A80036; stroke-width: 1.0;"/><!--link SecretCombination to Console--><path d="M757.779,651.179 C790.503,733.127 864.414,913.748 937.343,1061 C942.858,1072.137 948.777,1083.6 954.845,1095.026 " fill="none" id="SecretCombination-Console" style="stroke: #A80036; stroke-width: 1.0; stroke-dasharray: 7.0,7.0;"/><polygon fill="#A80036" points="957.269,1099.574,956.5654,1089.7503,954.9171,1095.1617,949.5057,1093.5133,957.269,1099.574" style="stroke: #A80036; stroke-width: 1.0;"/><!--link Mastermind to YesNoDialog--><path d="M582.546,157.68 C618.717,180.39 661.14,209.7 695.343,241 C795.353,332.51 823.14,358.61 887.343,478 C947.623,590.099 986.454,732.746 1007.1,823.988 " fill="none" id="Mastermind-YesNoDialog" style="stroke: #A80036; stroke-width: 1.0; stroke-dasharray: 7.0,7.0;"/><polygon fill="#A80036" points="1008.26,829.107,1010.1876,819.4486,1007.1628,824.2289,1002.3826,821.2041,1008.26,829.107" style="stroke: #A80036; stroke-width: 1.0;"/><!--
@startuml

package usantatecla.mastermind {
class Mastermind {
	+ void play()
	- void playGame()
	- boolean isResumedGame()
	+ {static} void main(String[] args)
}


class Board {
  - {static} {final} int MAX_ATTEMPS = 10;
  int attempts;
  Board()
  + void writeln()
  + void add(ProposedCombination)
  +  boolean isFinished()
  + boolean isWinner()
  - boolean isLooser()
}

abstract class Combination {
	~ Combination ()
}

class SecretCombination {
	SecretCombination()
	Result getResult(ProposedCombination)
	void writeln()
}

class ProposedCombination {
void write()
	void read()
	- Error checkError(String)
	boolean contains(Color, int)
	boolean contains(Color)
}

class Result{
+ {static} {fina} int WIDTH = 4;
	- int blacks
	- int whites
	Result(int, int)
	boolean isWinner()
	void writeln()
}

enum Color {
	RED
	BLUE
	YELLOW
	GREEN
	ORANGE
	PURPLE
	NULL_COLOR
	- char initial;
	- Color()
	- Color(char)
	{static} String getInitials()
	{static} int length()
	{static} Color get(int)
	void write()
	boolean isNull()
}

enum Error {
	DUPLICATED
	WRONG_CHARACTERS
	WRONG_LENGTH
	NULL_ERROR
	- String message;
	- Error()
	- Error(String)
	void writeln()
	+ boolean isNull()

}

enum Message {
	ATTEMPTS
	SECRET
	RESUME
	RESULT
	PROPOSED_COMBINATION
	TITLE
	WINNER
	LOOSER
	- String message;
	- Message(String)
	void write()
	void writeln()
	void writeln(int)
	void writeln(int, int)
}



Mastermind *-down-> Board : board
Mastermind .down.> ProposedCombination
Board *-down-> SecretCombination : secretCombination
Board o-down-> "0..10" ProposedCombination : proposedCombinations
Board o-down-> "0..10" Result : results

Combination *-down-> "4" Color : colors
Combination <|-down- SecretCombination
Combination <|-down- ProposedCombination
ProposedCombination .down.> Error


Mastermind .down.> Message
Board .down.> Message
ProposedCombination .down.> Message
Result .down.> Message

}

package usantatecla {

class Console {

	+ {static} Console console;
	+ {static} Console instance()
	- BufferedReader bufferedReader
	+ String readString(String)
	+ String readString()
	+ int readInt(String)
	+ char readChar(String)
	+ void writeln()
	+ void write(String)
	+ void write(int)
	+ void writeln(String)
	+ void writeln(int)
	+ void write(char)
	+ void writeError(String)
}

class YesNoDialog {

	- {static} final char AFFIRMATIVE
	- {static} final char NEGATIVE
	- {static} final String SUFFIX
	- {static} final String MESSAGE
	- char answer;
	+ boolean read(String)
	- boolean isAfirmative()
	- char getAnswer()
	- boolean isNegative()

}

}

YesNoDialog .down.> Console
Board .down.> Console
Color .down.> Console
Error .down.> Console
Message .down.> Console
ProposedCombination .down.> Console
SecretCombination .down.> Console
Mastermind .down.> YesNoDialog

@enduml

PlantUML version 1.2019.05(Sat Apr 20 18:45:36 CEST 2019)
(GPL source distribution)
Java Runtime: OpenJDK Runtime Environment
JVM: OpenJDK 64-Bit Server VM
Java Version: 1.8.0_222-b10
Operating System: Windows 10
OS Version: 10.0
Default Encoding: windows-1252
Language: es
Country: ES
--></g></svg>